<svg width="421" height="292" fill="none" xmlns="http://www.w3.org/2000/svg"><path d="M218.434 261.665h-.154c-1.797 0-3.626-.01-5.432-.033l.014-.173c1.801.019 3.621.033 5.413.033h.154v.173h.005zm5.581-.038l-.014-.172c1.849-.024 3.72-.056 5.563-.098l.028.172c-1.843.042-3.724.08-5.577.098zm-16.744-.088a522.385 522.385 0 01-5.567-.159l.042-.173c1.829.066 3.696.117 5.553.159l-.028.173zm27.888-.173l-.046-.173c1.838-.065 3.7-.14 5.534-.228l.061.172c-1.839.084-3.705.164-5.549.229zm-39.008-.215a445.023 445.023 0 01-5.53-.289l.074-.173c1.83.108 3.682.206 5.512.29l-.056.172zm50.087-.312l-.075-.173c1.83-.107 3.678-.229 5.484-.359l.088.168c-1.81.135-3.663.256-5.497.364zm-61.115-.336a405.11 405.11 0 01-5.464-.425l.102-.168c1.797.149 3.631.294 5.451.42l-.089.173zm72.077-.448l-.103-.168c1.806-.154 3.626-.318 5.409-.49l.117.168c-1.787.172-3.612.336-5.423.49zm-82.969-.462c-1.792-.173-3.602-.36-5.38-.551l.13-.163c1.774.191 3.58.378 5.367.55l-.117.164zm93.772-.588l-.135-.164c1.778-.196 3.565-.401 5.311-.62l.149.163c-1.75.219-3.542.425-5.325.621zm-104.486-.584a377.736 377.736 0 01-5.274-.681l.159-.163c1.736.238 3.509.466 5.259.681l-.144.163zm115.085-.718l-.164-.164c1.736-.238 3.486-.49 5.194-.746l.177.158a341.19 341.19 0 01-5.207.752zm-125.567-.705a394.361 394.361 0 01-5.142-.807l.191-.159c1.685.275 3.407.546 5.129.803l-.178.163zm135.908-.854l-.192-.159c1.699-.28 3.398-.574 5.05-.868l.205.154c-1.652.299-3.355.593-5.063.873zm-146.132-.826a319.643 319.643 0 01-5.003-.933l.215-.154c1.643.317 3.322.634 4.988.928l-.2.159zm156.179-.98l-.219-.154c1.628-.317 3.266-.649 4.867-.989l.233.149c-1.605.341-3.248.672-4.881.994zm-166.096-.947a308.108 308.108 0 01-4.821-1.055l.243-.149c1.573.359 3.192.709 4.807 1.05l-.229.154zm175.77-1.097l-.243-.149a288.88 288.88 0 004.686-1.106l.256.144c-1.549.383-3.131.756-4.699 1.111zm-185.318-1.069c-1.549-.378-3.103-.77-4.62-1.166l.271-.14c1.512.396 3.061.788 4.606 1.166l-.257.14zm194.609-1.204l-.27-.14c1.507-.396 3.014-.807 4.475-1.218l.285.136c-1.466.415-2.978.826-4.49 1.222zm-203.737-1.19a252.371 252.371 0 01-4.396-1.278l.294-.136c1.428.43 2.903.859 4.387 1.279l-.285.135zm212.609-1.306l-.294-.136c1.432-.434 2.86-.877 4.251-1.325l.308.131a257.18 257.18 0 01-4.265 1.33zm-221.284-1.307c-1.4-.453-2.796-.919-4.154-1.386l.318-.126c1.353.467 2.748.933 4.139 1.381l-.303.131zm229.684-1.405l-.318-.126a190.22 190.22 0 004-1.428l.331.122c-1.311.48-2.66.961-4.013 1.432zm-237.865-1.418a164.282 164.282 0 01-3.887-1.489l.34-.117c1.26.5 2.567.999 3.878 1.484l-.33.122zm245.751-1.503l-.34-.117a164.382 164.382 0 003.728-1.526l.351.112a161.04 161.04 0 01-3.739 1.531zm-253.385-1.521a146.051 146.051 0 01-3.603-1.582l.364-.108c1.166.528 2.37 1.06 3.593 1.578l-.354.112zm260.721-1.587l-.364-.107c1.167-.532 2.32-1.074 3.44-1.62l.373.103a158.528 158.528 0 01-3.449 1.624zm-267.773-1.619c-1.12-.546-2.23-1.111-3.295-1.671l.383-.098c1.064.56 2.17 1.12 3.285 1.666l-.373.103zm274.512-1.676l-.383-.098c1.064-.56 2.114-1.134 3.127-1.703l.392.093a122.231 122.231 0 01-3.136 1.708zm-280.943-1.703a87.49 87.49 0 01-2.968-1.75l.402-.089c.952.584 1.95 1.172 2.963 1.746l-.397.093zm287.047-1.759l-.401-.089c.956-.588 1.899-1.19 2.795-1.783l.406.084c-.891.598-1.839 1.2-2.8 1.788zm-292.82-1.778a88.528 88.528 0 01-2.627-1.82l.416-.08c.84.607 1.722 1.218 2.618 1.816l-.406.084zm298.257-1.834l-.415-.08a72.254 72.254 0 002.445-1.852l.424.074a77.067 77.067 0 01-2.454 1.858zM65.4 226.571a62.447 62.447 0 01-2.268-1.885l.43-.065c.718.63 1.479 1.26 2.258 1.88l-.42.07zm308.052-1.904l-.43-.065a52.623 52.623 0 002.081-1.913l.434.06a63.646 63.646 0 01-2.085 1.918zm-312.401-1.89a48.523 48.523 0 01-1.89-1.936l.443-.056a45.816 45.816 0 001.885 1.932l-.438.06zm316.381-1.983l-.443-.056a41.5 41.5 0 001.699-1.969l.447.051a38.829 38.829 0 01-1.703 1.974zm-319.975-1.923a37.69 37.69 0 01-1.507-1.988l.453-.042c.466.663.97 1.33 1.507 1.984l-.453.046zm323.19-2.044l-.452-.042c.466-.662.905-1.334 1.302-2.002l.457.038c-.401.662-.84 1.339-1.307 2.006zm-326.013-1.955a28.882 28.882 0 01-1.11-2.025l.457-.033c.336.672.71 1.353 1.11 2.021l-.457.037zm328.426-2.081l-.457-.033c.336-.672.639-1.358.905-2.035l.462.024a27.362 27.362 0 01-.91 2.044zm-330.451-1.984a23.113 23.113 0 01-.71-2.048l.462-.019c.201.681.44 1.367.71 2.044l-.462.023zm332.066-2.104l-.462-.019c.2-.681.368-1.367.504-2.053l.466.014a25.83 25.83 0 01-.508 2.058zm-333.284-2.007a22.18 22.18 0 01-.308-2.063l.466-.004c.07.686.173 1.376.308 2.058l-.466.009zm334.086-2.119l-.466-.004c.065-.686.098-1.377.098-2.058v-.108h.467v.108a20.4 20.4 0 01-.099 2.062zm-334.03-2.011h-.467v-.056c0-.672.033-1.349.094-2.011l.466.004c-.06.663-.093 1.34-.093 2.007v.056zM385 200.345a20.657 20.657 0 00-.312-2.058l.466-.014c.136.681.243 1.376.313 2.062l-.467.01zM51.834 198.45l-.467-.014c.131-.686.3-1.377.5-2.058l.462.019a23.427 23.427 0 00-.495 2.053zm332.341-2.217a24.57 24.57 0 00-.714-2.044l.462-.023c.271.677.514 1.367.714 2.049l-.462.018zm-331.146-1.88l-.462-.024c.266-.676.57-1.362.9-2.039l.458.033c-.331.672-.63 1.358-.896 2.03zm329.523-2.194a30.388 30.388 0 00-1.116-2.02l.457-.038c.402.668.78 1.349 1.12 2.026l-.461.032zm-327.526-1.857l-.457-.037c.401-.672.835-1.349 1.302-2.012l.453.042c-.462.663-.901 1.335-1.298 2.007zm325.094-2.165a33.937 33.937 0 00-1.512-1.984l.448-.051a37.563 37.563 0 011.517 1.988l-.453.047zm-322.298-1.83l-.449-.051a42.853 42.853 0 011.7-1.974l.443.056a43.35 43.35 0 00-1.694 1.969zm319.083-2.114a46.848 46.848 0 00-1.89-1.932l.434-.06a45.8 45.8 0 011.894 1.936l-.438.056zm-315.5-1.801l-.434-.061a55.687 55.687 0 012.082-1.922l.43.065a52.891 52.891 0 00-2.078 1.918zm311.533-2.035a58.699 58.699 0 00-2.263-1.876l.424-.074c.784.62 1.55 1.255 2.273 1.885l-.434.065zm-307.197-1.764l-.425-.074a72.473 72.473 0 012.45-1.862l.415.079a63.27 63.27 0 00-2.44 1.857zm302.488-1.964a91.63 91.63 0 00-2.622-1.816l.406-.084a81.32 81.32 0 012.632 1.82l-.416.08zm-297.43-1.713l-.406-.084a86.094 86.094 0 012.8-1.787l.402.088a76.811 76.811 0 00-2.796 1.783zm292.008-1.881a110.884 110.884 0 00-2.968-1.745l.392-.093a98.274 98.274 0 012.977 1.75l-.401.088zm-286.263-1.647l-.392-.093a114.827 114.827 0 013.131-1.713l.383.098c-1.064.56-2.114 1.134-3.122 1.708zm280.168-1.801a132.508 132.508 0 00-3.29-1.662l.373-.102c1.125.546 2.236 1.11 3.3 1.666l-.383.098zm-273.765-1.573l-.374-.103a139.735 139.735 0 013.445-1.624l.363.108c-1.166.532-2.319 1.078-3.434 1.619zm267.031-1.713a141.833 141.833 0 00-3.598-1.577l.35-.112c1.218.513 2.431 1.045 3.607 1.582l-.359.107zm-260.017-1.484l-.35-.112a194.87 194.87 0 013.733-1.535l.34.117a193.94 193.94 0 00-3.723 1.53zm252.681-1.619a158.693 158.693 0 00-3.883-1.479l.332-.122c1.316.486 2.627.985 3.892 1.484l-.341.117zm-245.093-1.391l-.332-.121a209.11 209.11 0 014.009-1.437l.317.126a250.09 250.09 0 00-3.994 1.432zm237.197-1.521a223.482 223.482 0 00-4.144-1.381l.308-.131c1.395.448 2.796.915 4.158 1.386l-.322.126zm-229.077-1.288l-.308-.131c1.39-.452 2.823-.9 4.256-1.33l.294.136c-1.428.429-2.856.877-4.242 1.325zm220.663-1.423a206.755 206.755 0 00-4.387-1.274l.28-.136c1.48.416 2.959.845 4.401 1.279l-.294.131zm-212.058-1.181l-.284-.135c1.47-.416 2.981-.826 4.489-1.223l.27.14c-1.502.397-3.005.807-4.475 1.218zm203.164-1.316a252.334 252.334 0 00-4.611-1.162l.256-.145c1.545.378 3.104.77 4.625 1.167l-.27.14zm-194.106-1.064l-.257-.145c1.54-.378 3.118-.751 4.695-1.11l.243.149c-1.573.355-3.146.728-4.681 1.106zm184.786-1.204a343.122 343.122 0 00-4.811-1.05l.228-.149c1.615.34 3.239.69 4.826 1.05l-.243.149zm-175.327-.952l-.233-.149c1.605-.341 3.244-.672 4.881-.994l.22.154a264.6 264.6 0 00-4.868.989zm165.611-1.087a375.04 375.04 0 00-4.989-.929l.206-.154c1.67.299 3.355.611 5.002.933l-.219.15zm-155.778-.836l-.205-.154c1.661-.298 3.364-.592 5.058-.872l.192.158c-1.69.276-3.388.57-5.045.868zm145.717-.961c-1.69-.275-3.416-.546-5.129-.803l.177-.158c1.718.256 3.449.527 5.143.807l-.191.154zm-135.548-.723l-.178-.159c1.713-.257 3.463-.509 5.204-.751l.163.163c-1.736.238-3.481.49-5.189.747zm125.22-.822c-1.731-.233-3.5-.462-5.259-.676l.145-.164c1.764.215 3.537.444 5.273.682l-.159.158zm-114.776-.606l-.15-.164c1.755-.214 3.547-.424 5.325-.62l.135.163c-1.773.196-3.56.401-5.31.621zm104.197-.686a456.61 456.61 0 00-5.367-.551l.117-.168c1.797.173 3.607.359 5.385.551l-.135.168zm-93.525-.495l-.116-.168c1.792-.173 3.616-.341 5.422-.495l.103.168c-1.801.159-3.621.322-5.409.495zm82.745-.537c-1.806-.149-3.64-.289-5.455-.42l.088-.168c1.82.131 3.659.271 5.47.42l-.103.168zm-71.885-.378l-.089-.168c1.815-.13 3.663-.252 5.497-.364l.075.173c-1.829.107-3.673.229-5.483.359zm60.946-.396a410.844 410.844 0 00-5.516-.29l.056-.172c1.839.084 3.701.182 5.53.289l-.07.173zm-49.956-.262l-.061-.172a525.32 525.32 0 015.549-.234l.046.173c-1.843.065-3.705.145-5.534.233zm38.906-.252a439.984 439.984 0 00-5.554-.158l.028-.173c1.853.042 3.729.093 5.568.159l-.042.172zm-27.818-.144l-.028-.173a567.91 567.91 0 015.576-.103l.014.173a425.62 425.62 0 00-5.562.103zm16.702-.108c-1.75-.018-3.524-.028-5.269-.028h-.299v-.172h.299c1.75 0 3.528.009 5.283.028l-.014.172z" fill="url(#prefix__paint0_linear_101_730)"/><path d="M362.051 87.276c-1.018-.854-2.217-1.545-3.533-1.74-1.316-.197-2.753.158-3.663 1.129-.486.518-.794 1.176-1.018 1.848a9.096 9.096 0 00-.154 5.198l2.679 2.25c-.005-.066-.005-.136-.009-.201a1.088 1.088 0 01.126-.537 9.032 9.032 0 01-.075-4.088c.191-.886.602-1.838 1.442-2.184 1.055-.429 2.226.308 2.987 1.158 2.212 2.473 2.795 6.286 1.418 9.305l-.499-.36c.005.458-.023.915-.084 1.368l2.557 2.147c1.088-3.626 2.17-7.57.845-11.121-.602-1.633-1.689-3.057-3.019-4.172z" fill="url(#prefix__paint1_linear_101_730)"/><path d="M332.585 101.649a2.73 2.73 0 100-5.46 2.73 2.73 0 000 5.46z" fill="url(#prefix__paint2_linear_101_730)"/><path d="M336.669 119.597l-2.992-2.459c-.406 2.749-2.067 4.97-4.237 5.53-2.156.555-4.251-.672-4.989-1.106a8.462 8.462 0 01-1.558-1.181c-.159-.079-.327-.13-.49-.102-.033.004-.075.028-.122.051.014.341-.023.681-.126 1.013a4.308 4.308 0 01-.653.924c-.868.938-1.895 1.208-1.853 1.344.024.07.313.079 1.512-.168.005.004.005.009.01.009 3.514 4.905 10.066 7.667 15.46 6.515 1.433-.308 3.883-.85 4.597-2.651.831-2.086-.896-5.287-4.559-7.719z" fill="url(#prefix__paint3_linear_101_730)"/><path d="M335.101 111.057c6.178-3.803 10.308-10.103 11.568-17.066a19.534 19.534 0 00-11.717 6.375 19.538 19.538 0 00-4.933 13.09 25.8 25.8 0 005.082-2.399z" fill="url(#prefix__paint4_linear_101_730)"/><path d="M362.629 98.695a19.546 19.546 0 00-14.49-4.872c-.093.57-.196 1.134-.322 1.694-2.058 9.096-8.932 16.506-17.728 19.39a19.518 19.518 0 006.533 13.128c8.101 7.182 17.705 3.966 24.887-4.135 7.182-8.101 9.222-18.023 1.12-25.205z" fill="url(#prefix__paint5_linear_101_730)"/><path d="M208.714 153.249c52.239 0 94.588-16.838 94.588-37.609 0-20.77-42.349-37.609-94.588-37.609-52.24 0-94.589 16.838-94.589 37.609s42.349 37.609 94.589 37.609z" fill="url(#prefix__paint6_linear_101_730)"/><path d="M208.714 136.971c34.306 0 62.117-10.304 62.117-23.016 0-12.711-27.811-23.016-62.117-23.016-34.307 0-62.119 10.305-62.119 23.016 0 12.712 27.812 23.016 62.119 23.016z" fill="#252422"/><path d="M210.053 153.249c-24.738 0-47.129-4.242-63.29-11.098v57.19c0 10.192 5.773 19.4 14.654 23.306 11.802 5.189 28.34 10.266 48.374 10.308 20.268.047 36.993-5.077 48.888-10.304 8.89-3.906 14.668-13.113 14.668-23.314v-57.181c-16.166 6.851-38.552 11.093-63.294 11.093z" fill="url(#prefix__paint7_linear_101_730)"/><path d="M208.713 153.715c-25.321 0-49.135-3.924-67.055-11.05-18.055-7.178-28-16.777-28-27.03 0-10.248 9.945-19.847 28-27.029 17.92-7.126 41.734-11.05 67.055-11.05 25.322 0 49.136 3.924 67.056 11.05 18.055 7.177 28 16.777 28 27.029 0 10.253-9.945 19.848-28 27.03-17.92 7.13-41.734 11.05-67.056 11.05zm0-75.217c-51.898 0-94.122 16.665-94.122 37.142 0 20.477 42.224 37.142 94.122 37.142s94.122-16.665 94.122-37.142c0-20.477-42.224-37.142-94.122-37.142z" fill="url(#prefix__paint8_linear_101_730)"/><path d="M114.475 244.132c-3.818-4.774-7.346-8.297-7.878-7.868-.532.429 2.124 4.643 5.941 9.417 3.817 4.774 7.345 8.298 7.877 7.868.532-.429-2.123-4.643-5.94-9.417z" fill="url(#prefix__paint9_radial_101_730)"/><path d="M114.283 245.877c4.774-3.817 8.298-7.345 7.868-7.877-.429-.532-4.643 2.123-9.417 5.941-4.774 3.817-8.297 7.345-7.868 7.877.429.532 4.643-2.123 9.417-5.941z" fill="url(#prefix__paint10_radial_101_730)"/><path d="M128.405 92.83c-4.336-1.083-7.948-1.569-8.069-1.083-.121.485 3.295 1.759 7.63 2.842 4.335 1.082 7.947 1.568 8.069 1.082.121-.485-3.295-1.759-7.63-2.842z" fill="url(#prefix__paint11_radial_101_730)"/><path d="M129.067 93.926c1.083-4.335 1.568-7.947 1.083-8.069-.485-.121-1.759 3.295-2.842 7.63-1.083 4.336-1.568 7.948-1.083 8.069.486.121 1.755-3.295 2.842-7.63z" fill="url(#prefix__paint12_radial_101_730)"/><path d="M210.057 233.198h-.266c-16.655-.037-32.96-3.514-48.468-10.332-8.983-3.953-14.793-13.183-14.793-23.52v-57.545l.327.136c16.851 7.144 39.293 11.078 63.2 11.078 23.903 0 46.35-3.934 63.201-11.078l.327-.136v57.545c0 10.337-5.81 19.572-14.808 23.529-15.596 6.846-31.98 10.323-48.72 10.323zm-63.06-90.692v56.84c0 10.15 5.698 19.217 14.513 23.095 15.447 6.79 31.687 10.253 48.281 10.29h.266c16.674 0 32.998-3.458 48.529-10.285 8.825-3.878 14.527-12.945 14.527-23.1v-56.84c-16.87 7.079-39.246 10.976-63.056 10.976-23.814 0-46.19-3.897-63.06-10.976z" fill="url(#prefix__paint13_linear_101_730)"/><path d="M210.053 173.315c-24.738 0-47.129-4.242-63.29-11.097v15.4c16.166 6.855 38.552 11.097 63.29 11.097s47.128-4.242 63.289-11.097v-15.4c-16.161 6.855-38.547 11.097-63.289 11.097z" fill="url(#prefix__paint14_linear_101_730)"/><path d="M171.324 57.367h70.756c3.08 0 5.6-2.52 5.6-5.6V5.6c0-3.08-2.52-5.6-5.6-5.6h-70.756c-3.08 0-5.6 2.52-5.6 5.6v46.167c0 3.08 2.52 5.6 5.6 5.6z" fill="url(#prefix__paint15_linear_101_730)"/><path d="M236.536 64.591H165.78a5.841 5.841 0 01-5.833-5.833V12.591a5.841 5.841 0 015.833-5.834h70.756a5.841 5.841 0 015.833 5.834v46.167a5.838 5.838 0 01-5.833 5.833zM165.78 7.224a5.373 5.373 0 00-5.367 5.367v46.167a5.373 5.373 0 005.367 5.367h70.756a5.373 5.373 0 005.367-5.367V12.591a5.373 5.373 0 00-5.367-5.367H165.78z" fill="url(#prefix__paint16_linear_101_730)"/><path d="M237.073 16.898h-61.708v1.4h61.708v-1.4zM237.073 27.986h-48.45v1.4h48.45v-1.4z" fill="#fff"/><path d="M39.239 173.479c-8.708 19.665.172 42.662 19.838 51.37 19.665 8.708 42.662-.172 51.37-19.838 8.708-19.665-.172-42.662-19.838-51.37-19.665-8.708-42.662.177-51.37 19.838zm45.752 25.13c2.585-.588 4.606 1.661 5.198 3.873 1.046 3.878 1.088 8.671-2.277 11.475-4.573 3.813-11.84 1.153-15.232-3.005-1.055-1.293-1.736-2.823-1.923-4.391a27.14 27.14 0 01-1.204-2.721c-.9-2.343-.009-5.054 2.376-6.104 1.554-.686 3.481-.369 4.806.677 1.494-.5 3.08-.77 4.55-.92 1.414-.135 2.712.252 3.706 1.116zm7.434-22.368l1.185-.028a3.5 3.5 0 011.685.551 3.5 3.5 0 011.437 1.129c.42.481.695 1.022.817 1.634.219.564.284 1.148.196 1.759-.052.495-.103.985-.15 1.479a4.621 4.621 0 01-.83 2.212l-.85.906a4.575 4.575 0 01-2.212.984l-1.185.028a3.508 3.508 0 01-1.685-.55 3.495 3.495 0 01-1.437-1.13 3.472 3.472 0 01-.817-1.633 3.413 3.413 0 01-.196-1.759c.052-.495.103-.985.15-1.48a4.629 4.629 0 01.83-2.212l.85-.905a4.623 4.623 0 012.212-.985zM51.54 192.668c1.087-.537 2.37-.462 3.49-.098.449.145.873.425 1.265.751 1.12.173 2.096.794 2.842 1.629.822.919 1.088 2.198 1.018 3.393-.07 1.152-.803 2.403-1.685 3.117-.798.649-1.815.975-2.837 1.008a9.515 9.515 0 00-.887.154 5.495 5.495 0 01-2.464-.023c-1.932-.453-3.425-1.984-3.733-3.976-.178-1.139.07-2.301.527-3.342.509-1.18 1.311-2.044 2.464-2.613zm12.535-31.281c2.59-.144 4.755 1.2 5.287 3.864.22 1.102-.112 2.329-.78 3.328.603 1.451.453 3.266-.475 4.503-2.744 3.645-6.123 7.751-10.477 9.539-3.169 1.302-6.94 1.064-9.226-1.764-1.955-2.418-1.955-5.717-1.027-8.54 2.268-6.893 9.912-10.547 16.698-10.93z" fill="url(#prefix__paint17_linear_101_730)"/><path d="M322.071 213.229c-4.335-1.082-7.947-1.568-8.068-1.082-.122.485 3.294 1.759 7.63 2.842 4.335 1.082 7.947 1.568 8.068 1.082.122-.485-3.294-1.759-7.63-2.842z" fill="url(#prefix__paint18_radial_101_730)"/><path d="M322.734 214.326c1.083-4.335 1.568-7.947 1.083-8.069-.486-.121-1.76 3.295-2.842 7.63-1.083 4.336-1.568 7.948-1.083 8.069.485.121 1.755-3.295 2.842-7.63z" fill="url(#prefix__paint19_radial_101_730)"/><path d="M210.057 233.198h-.266c-16.655-.037-32.96-3.514-48.468-10.332-8.983-3.953-14.793-13.183-14.793-23.52v-57.545l.327.136c16.851 7.144 39.293 11.078 63.2 11.078 23.903 0 46.35-3.934 63.201-11.078l.327-.136v57.545c0 10.337-5.81 19.572-14.808 23.529-15.596 6.846-31.98 10.323-48.72 10.323zm-63.06-90.692v56.84c0 10.15 5.698 19.217 14.513 23.095 15.447 6.79 31.687 10.253 48.281 10.29h.266c16.674 0 32.998-3.458 48.529-10.285 8.825-3.878 14.527-12.945 14.527-23.1v-56.84c-16.87 7.079-39.246 10.976-63.056 10.976-23.814 0-46.19-3.897-63.06-10.976z" fill="url(#prefix__paint20_linear_101_730)"/><path d="M420.347 243.866h-64.904l-8.368-15.895h62.058v-.168h-62.146l-8.344-15.852 59.271.009v-.168l-59.36-.009-8.363-15.886H386.7v-.168h-56.593l-8.367-15.894h53.746v-.168h-53.835l-8.409-15.974-.317.042 8.386 15.932h-47.964v.168h48.052l8.368 15.894h-56.42v.168h56.504l8.362 15.886-60.419-.01-4.447-13.976v1.05l4.111 12.922h-7.196c-.028.056-.061.112-.093.168h7.34l5.045 15.862h-37.8l-.56.168h38.416l5.054 15.894h-75.908v-10.915c-.112 0-.219 0-.331.005v10.915h-66.08l3.108-15.895h27.463l-.56-.168h-26.871l2.698-13.804c-.089-.13-.173-.261-.257-.392l-2.777 14.192h-66.35l7.056-15.886 61.068.01c-.028-.056-.061-.112-.089-.168l-60.905-.01 7.042-15.852h50.788v-.168H96.041l7.061-15.895h43.657v-.168h-43.582l7.079-15.937-.322-.037-7.093 15.969H48.026v.168h54.74l-7.06 15.895H36.7v.168h58.93l-7.041 15.853-63.215-.01v.168l63.145.01-7.056 15.885H13.94v.168h67.447l-7.06 15.895H.967v.168h73.29l-7.09 15.96.323.037 7.107-15.997h70.387l-2.828 14.457.327.014 2.828-14.476h66.113v15.951h.331V244.02h75.959l4.751 14.933.327-.028-4.742-14.905h67.135l7.546 14.336.317-.042-7.522-14.294h64.82v-.154zm-275.334 0H74.668l7.06-15.895h66.393l-3.108 15.895zm132.832-31.92l60.457.009 8.344 15.853H282.89l-5.045-15.862zm10.15 31.92l-5.054-15.895h63.789l8.367 15.895h-67.102z" fill="url(#prefix__paint21_linear_101_730)"/><path d="M82.55 111.319c11.209 0 20.295-9.087 20.295-20.296 0-11.208-9.086-20.295-20.295-20.295-11.209 0-20.295 9.087-20.295 20.295 0 11.209 9.086 20.296 20.295 20.296z" fill="url(#prefix__paint22_linear_101_730)"/><path d="M312.617 291.536c22.595 0 40.912-18.317 40.912-40.913 0-22.595-18.317-40.912-40.912-40.912-22.596 0-40.913 18.317-40.913 40.912 0 22.596 18.317 40.913 40.913 40.913z" fill="url(#prefix__paint23_linear_101_730)"/><g opacity=".58"><path opacity=".33" d="M210.053 153.249c12.282 0 23.982-1.046 34.631-2.94a385.682 385.682 0 00-32.475-1.349c-12.213 0-24.052.56-35.332 1.601 10.258 1.736 21.453 2.688 33.176 2.688z" fill="url(#prefix__paint24_linear_101_730)"/><path opacity=".33" d="M273.347 153.953v45.388c0 10.197-5.778 19.409-14.668 23.315-11.9 5.231-28.62 10.351-48.888 10.304-20.034-.047-36.568-5.119-48.374-10.309-8.881-3.906-14.654-13.113-14.654-23.305v-44.613c-43.54 8.222-73.15 24.392-73.15 42.994 0 26.931 62.053 48.766 138.6 48.766 76.548 0 138.6-21.835 138.6-48.766 0-19.208-31.579-35.822-77.466-43.774z" fill="url(#prefix__paint25_linear_101_730)"/></g><path d="M247.895 50.675c-2.791-3.49-5.372-6.066-5.759-5.754-.387.313 1.554 3.398 4.345 6.884 2.79 3.49 5.371 6.066 5.758 5.754.392-.313-1.554-3.393-4.344-6.884z" fill="url(#prefix__paint26_radial_101_730)"/><path d="M247.755 51.95c3.49-2.791 6.066-5.372 5.754-5.76-.313-.391-3.398 1.555-6.884 4.345s-6.066 5.372-5.754 5.759c.308.392 3.393-1.554 6.884-4.345z" fill="url(#prefix__paint27_radial_101_730)"/><path d="M301.417 52.887c7.804 0 14.13-6.326 14.13-14.13 0-7.804-6.326-14.131-14.13-14.131-7.804 0-14.131 6.326-14.131 14.13 0 7.805 6.327 14.131 14.131 14.131z" fill="url(#prefix__paint28_linear_101_730)" fill-opacity=".6"/><path d="M37.008 133.065c-3.817-4.774-7.345-8.297-7.877-7.868-.532.43 2.123 4.644 5.94 9.418 3.818 4.774 7.346 8.297 7.878 7.868.532-.43-2.124-4.644-5.941-9.418z" fill="url(#prefix__paint29_radial_101_730)"/><path d="M36.817 134.811c4.774-3.818 8.297-7.346 7.868-7.878-.43-.532-4.644 2.124-9.418 5.941-4.774 3.817-8.297 7.345-7.868 7.877.425.537 4.644-2.123 9.418-5.94z" fill="url(#prefix__paint30_radial_101_730)"/><path d="M378.921 161.532c-2.464-3.08-4.742-5.353-5.082-5.077-.341.275 1.372 2.996 3.836 6.076 2.464 3.08 4.741 5.352 5.082 5.077.345-.275-1.372-2.996-3.836-6.076z" fill="url(#prefix__paint31_radial_101_730)"/><path d="M378.795 162.657c3.08-2.464 5.352-4.742 5.077-5.082-.275-.346-2.996 1.372-6.076 3.836-3.08 2.464-5.353 4.741-5.077 5.082.275.34 2.996-1.377 6.076-3.836z" fill="url(#prefix__paint32_radial_101_730)"/><defs><linearGradient id="prefix__paint0_linear_101_730" x1="218.278" y1="143.365" x2="218.278" y2="261.665" gradientUnits="userSpaceOnUse"><stop stop-color="#446CF6"/><stop offset="1" stop-color="#64C9FC"/></linearGradient><linearGradient id="prefix__paint1_linear_101_730" x1="361.529" y1="86.919" x2="358.672" y2="96.888" gradientUnits="userSpaceOnUse"><stop stop-color="#446CF6"/><stop offset="1" stop-color="#7D54FC" stop-opacity="0"/></linearGradient><linearGradient id="prefix__paint2_linear_101_730" x1="330.806" y1="100.94" x2="334.427" y2="96.855" gradientUnits="userSpaceOnUse"><stop stop-color="#446CF6"/><stop offset="1" stop-color="#7D54FC" stop-opacity="0"/></linearGradient><linearGradient id="prefix__paint3_linear_101_730" x1="326.63" y1="129.741" x2="336.212" y2="118.932" gradientUnits="userSpaceOnUse"><stop stop-color="#446CF6"/><stop offset="1" stop-color="#7D54FC" stop-opacity="0"/></linearGradient><linearGradient id="prefix__paint4_linear_101_730" x1="330.025" y1="103.719" x2="346.673" y2="103.719" gradientUnits="userSpaceOnUse"><stop stop-color="#446CF6"/><stop offset="1" stop-color="#7D54FC" stop-opacity="0"/></linearGradient><linearGradient id="prefix__paint5_linear_101_730" x1="330.088" y1="112.893" x2="367.859" y2="112.893" gradientUnits="userSpaceOnUse"><stop stop-color="#446CF6"/><stop offset="1" stop-color="#7D54FC" stop-opacity="0"/></linearGradient><linearGradient id="prefix__paint6_linear_101_730" x1="209.21" y1="53.5" x2="207.693" y2="242.669" gradientUnits="userSpaceOnUse"><stop offset=".043" stop-color="#6AD9D3"/><stop offset="1" stop-color="#7D54FC" stop-opacity="0"/></linearGradient><linearGradient id="prefix__paint7_linear_101_730" x1="206.766" y1="296.352" x2="212.779" y2="67.006" gradientUnits="userSpaceOnUse"><stop stop-color="#6AD9D3"/><stop offset="1" stop-color="#7D54FC" stop-opacity="0"/></linearGradient><linearGradient id="prefix__paint8_linear_101_730" x1="208.713" y1="77.555" x2="208.713" y2="153.715" gradientUnits="userSpaceOnUse"><stop stop-color="#446CF6"/><stop offset="1" stop-color="#64C9FC"/></linearGradient><linearGradient id="prefix__paint13_linear_101_730" x1="210.057" y1="141.801" x2="210.057" y2="233.198" gradientUnits="userSpaceOnUse"><stop stop-color="#446CF6"/><stop offset="1" stop-color="#64C9FC"/></linearGradient><linearGradient id="prefix__paint14_linear_101_730" x1="209.053" y1="208.123" x2="210.888" y2="138.136" gradientUnits="userSpaceOnUse"><stop stop-color="#6AD9D3"/><stop offset="1" stop-color="#64C9FC" stop-opacity="0"/></linearGradient><linearGradient id="prefix__paint15_linear_101_730" x1="206.702" y1="0" x2="206.702" y2="57.367" gradientUnits="userSpaceOnUse"><stop stop-color="#6AD9D3"/><stop offset="1" stop-color="#64C9FC"/></linearGradient><linearGradient id="prefix__paint16_linear_101_730" x1="201.157" y1="6.757" x2="201.157" y2="64.593" gradientUnits="userSpaceOnUse"><stop stop-color="#446CF6"/><stop offset=".993" stop-color="#7D55FC" stop-opacity=".999"/></linearGradient><linearGradient id="prefix__paint17_linear_101_730" x1="112.532" y1="198.955" x2="37.09" y2="179.581" gradientUnits="userSpaceOnUse"><stop stop-color="#446CF6"/><stop offset="1" stop-color="#7D54FC" stop-opacity="0"/></linearGradient><linearGradient id="prefix__paint20_linear_101_730" x1="210.057" y1="141.801" x2="210.057" y2="233.198" gradientUnits="userSpaceOnUse"><stop stop-color="#446CF6"/><stop offset="1" stop-color="#64C9FC"/></linearGradient><linearGradient id="prefix__paint21_linear_101_730" x1="210.657" y1="163.688" x2="210.657" y2="260.022" gradientUnits="userSpaceOnUse"><stop stop-color="#446CF6"/><stop offset="1" stop-color="#64C9FC"/></linearGradient><linearGradient id="prefix__paint22_linear_101_730" x1="84.473" y1="111.25" x2="80.556" y2="70.852" gradientUnits="userSpaceOnUse"><stop stop-color="#446CF6"/><stop offset="1" stop-color="#7D54FC" stop-opacity="0"/></linearGradient><linearGradient id="prefix__paint23_linear_101_730" x1="281.044" y1="224.556" x2="344.218" y2="276.553" gradientUnits="userSpaceOnUse"><stop stop-color="#446CF6"/><stop offset="1" stop-color="#7D54FC" stop-opacity="0"/></linearGradient><linearGradient id="prefix__paint24_linear_101_730" x1="210.781" y1="148.96" x2="210.781" y2="153.249" gradientUnits="userSpaceOnUse"><stop stop-color="#446CF6"/><stop offset="1" stop-color="#64C9FC"/></linearGradient><linearGradient id="prefix__paint25_linear_101_730" x1="212.213" y1="153.953" x2="212.213" y2="246.493" gradientUnits="userSpaceOnUse"><stop stop-color="#446CF6"/><stop offset="1" stop-color="#64C9FC"/></linearGradient><linearGradient id="prefix__paint28_linear_101_730" x1="301.417" y1="24.626" x2="301.417" y2="52.887" gradientUnits="userSpaceOnUse"><stop stop-color="#6AD9D3"/><stop offset="1" stop-color="#64C9FC"/></linearGradient><radialGradient id="prefix__paint9_radial_101_730" cx="0" cy="0" r="1" gradientUnits="userSpaceOnUse" gradientTransform="rotate(141.354 13.743 142.35) scale(3.3162 13.0476)"><stop stop-color="#fff"/><stop offset="1" stop-color="#fff" stop-opacity="0"/></radialGradient><radialGradient id="prefix__paint10_radial_101_730" cx="0" cy="0" r="1" gradientUnits="userSpaceOnUse" gradientTransform="rotate(-128.646 115.676 95.11) scale(3.31622 13.0477)"><stop stop-color="#fff"/><stop offset="1" stop-color="#fff" stop-opacity="0"/></radialGradient><radialGradient id="prefix__paint11_radial_101_730" cx="0" cy="0" r="1" gradientUnits="userSpaceOnUse" gradientTransform="rotate(104.04 27.408 96.903) scale(2.42455 9.53942)"><stop stop-color="#fff"/><stop offset="1" stop-color="#fff" stop-opacity="0"/></radialGradient><radialGradient id="prefix__paint12_radial_101_730" cx="0" cy="0" r="1" gradientUnits="userSpaceOnUse" gradientTransform="matrix(-2.35208 -.58823 2.3144 -9.25436 128.196 93.644)"><stop stop-color="#fff"/><stop offset="1" stop-color="#fff" stop-opacity="0"/></radialGradient><radialGradient id="prefix__paint18_radial_101_730" cx="0" cy="0" r="1" gradientUnits="userSpaceOnUse" gradientTransform="rotate(104.041 77.237 232.704) scale(2.42454 9.53941)"><stop stop-color="#fff"/><stop offset="1" stop-color="#fff" stop-opacity="0"/></radialGradient><radialGradient id="prefix__paint19_radial_101_730" cx="0" cy="0" r="1" gradientUnits="userSpaceOnUse" gradientTransform="rotate(-165.959 174.107 87.198) scale(2.42454 9.53937)"><stop stop-color="#fff"/><stop offset="1" stop-color="#fff" stop-opacity="0"/></radialGradient><radialGradient id="prefix__paint26_radial_101_730" cx="0" cy="0" r="1" gradientUnits="userSpaceOnUse" gradientTransform="matrix(-1.89364 1.51416 -5.95746 -7.45051 247.048 51.272)"><stop stop-color="#fff"/><stop offset="1" stop-color="#fff" stop-opacity="0"/></radialGradient><radialGradient id="prefix__paint27_radial_101_730" cx="0" cy="0" r="1" gradientUnits="userSpaceOnUse" gradientTransform="matrix(-1.5142 -1.89361 7.45041 -5.9576 247.32 51.197)"><stop stop-color="#fff"/><stop offset="1" stop-color="#fff" stop-opacity="0"/></radialGradient><radialGradient id="prefix__paint29_radial_101_730" cx="0" cy="0" r="1" gradientUnits="userSpaceOnUse" gradientTransform="rotate(141.354 -5.514 73.234) scale(3.31621 13.0476)"><stop stop-color="#fff"/><stop offset="1" stop-color="#fff" stop-opacity="0"/></radialGradient><radialGradient id="prefix__paint30_radial_101_730" cx="0" cy="0" r="1" gradientUnits="userSpaceOnUse" gradientTransform="matrix(-2.071 -2.59002 10.19043 -8.14832 36.164 133.791)"><stop stop-color="#fff"/><stop offset="1" stop-color="#fff" stop-opacity="0"/></radialGradient><radialGradient id="prefix__paint31_radial_101_730" cx="0" cy="0" r="1" gradientUnits="userSpaceOnUse" gradientTransform="rotate(141.354 160.66 147.33) scale(2.13986 8.41928)"><stop stop-color="#fff"/><stop offset="1" stop-color="#fff" stop-opacity="0"/></radialGradient><radialGradient id="prefix__paint32_radial_101_730" cx="0" cy="0" r="1" gradientUnits="userSpaceOnUse" gradientTransform="matrix(-1.33636 -1.67127 6.5756 -5.25788 378.434 161.979)"><stop stop-color="#fff"/><stop offset="1" stop-color="#fff" stop-opacity="0"/></radialGradient></defs></svg>