<svg width="420" height="292" fill="none" xmlns="http://www.w3.org/2000/svg"><path opacity=".46" d="M327.609 48.748l-.69-1.139a7.2 7.2 0 00.69 1.139z" fill="url(#prefix__paint0_linear_149_213)"/><path opacity=".46" d="M336.98 53.382c-2.002-.345-4.102-.891-5.917-1.82a9.248 9.248 0 00-.915-.896 12.73 12.73 0 00-2.217-1.498 5.604 5.604 0 01-.326-.42l.219.36c-1.498-.803-3.131-1.382-4.746-1.928-2.469-.84-5.04-1.652-7.635-1.41-2.599.243-5.25 1.811-5.959 4.322-.574 2.025.191 4.177.084 6.277-.182 3.593-2.847 6.566-5.707 8.75-7.598 5.79-17.696 8.17-27.076 6.374-4.345-.83-9.002-3.005-10.374-7.21-1.172-3.588.429-7.462.312-11.237-.158-5.315-3.831-10.07-8.442-12.717-4.61-2.646-10.038-3.486-15.348-3.738-6.03-.29-12.395.206-17.472 3.472-5.078 3.267-8.316 10.01-5.932 15.559 3.043 7.093 13.38 9.357 15.302 16.833.887 3.444-.345 7.046-.35 10.602-.009 8.834 7.355 15.844 14.77 20.646 3.365 2.179 8.055 4.078 11.074 1.437 2.996-2.618 1.872-7.672 3.967-11.06 2.128-3.444 7.028-4.125 10.887-2.912 3.864 1.213 7.094 3.84 10.612 5.833 5.792 3.286 12.81 4.872 19.213 3.038 6.039-1.731 10.836-6.216 16.31-9.305 5.087-2.875 10.752-4.536 16.072-6.94 5.32-2.407 10.514-5.795 13.277-10.943 2.762-5.147 2.31-12.352-2.282-15.964-3.164-2.492-7.439-2.824-11.401-3.505zm7.019 13.897c-.43 1.62-2.31 2.432-6.072 4.065-1.992.863-1.852.56-4.461 1.633-3.477 1.433-4.093 2.128-5.334 1.839-1.736-.406-3.575-2.473-3.075-4.018.359-1.11 1.456-1.913 1.638-3.07.252-1.601-1.41-2.899-3.001-3.193-1.591-.294-3.257.014-4.835-.345-2.898-.667-4.946-3.747-4.648-6.706.299-2.959 2.754-5.502 5.661-6.123 2.907-.62 6.071.588 8.003 2.847 1.928 2.254 2.954 5.595 5.75 6.58 2.03.714 4.316-.126 6.416.345 2.6.593 4.536 3.972 3.958 6.146z" fill="url(#prefix__paint1_linear_149_213)"/><path d="M352.484 202.603c9.943-20.941-32.234-61.771-94.206-91.196-61.972-29.425-120.27-36.303-130.214-15.362-9.943 20.942 32.235 61.772 94.206 91.197 61.972 29.425 120.271 36.302 130.214 15.361z" fill="url(#prefix__paint2_linear_149_213)"/><path d="M319.783 240.329c-2.585 0-5.254-.07-7.998-.215-30.287-1.596-66.682-11.83-102.476-28.826-35.793-16.996-66.733-38.724-87.112-61.189-20.571-22.676-27.963-43.456-20.809-58.516 7.154-15.064 27.93-22.47 58.497-20.86 30.286 1.596 66.682 11.83 102.475 28.826 35.793 16.996 66.733 38.724 87.113 61.19 20.57 22.675 27.962 43.456 20.808 58.515-6.505 13.706-24.304 21.075-50.498 21.075zM102.233 91.98l.844.401c-14.186 29.876 33.829 82.46 107.035 117.218 40.222 19.096 79.814 28.9 109.671 28.9 24.486 0 42.425-6.589 48.814-20.052 14.186-29.876-33.829-82.46-107.035-117.218-73.206-34.757-144.303-38.728-158.489-8.852l-.84-.397z" fill="url(#prefix__paint3_linear_149_213)"/><path d="M256.652 150.171c1.203-2.533-3.901-7.473-11.4-11.033-7.499-3.561-14.553-4.394-15.755-1.861-1.203 2.533 3.901 7.473 11.4 11.034 7.498 3.56 14.552 4.393 15.755 1.86zM159.758 101.016c.391-.824-1.268-2.43-3.705-3.588-2.438-1.157-4.731-1.427-5.122-.603-.392.824 1.267 2.43 3.705 3.588 2.437 1.157 4.73 1.427 5.122.603zM339.884 197.157c.392-.824-1.267-2.43-3.705-3.588-2.437-1.157-4.73-1.427-5.122-.603-.391.824 1.268 2.43 3.705 3.588 2.438 1.157 4.731 1.427 5.122.603zM275.022 129.488c.391-.824-1.268-2.43-3.705-3.588-2.438-1.157-4.731-1.427-5.122-.603-.392.824 1.267 2.43 3.704 3.588 2.438 1.157 4.731 1.427 5.123.603zM205.021 166.351c.391-.824-1.268-2.43-3.705-3.588-2.438-1.157-4.731-1.427-5.122-.603-.392.824 1.267 2.43 3.705 3.588 2.437 1.157 4.73 1.427 5.122.603z" fill="#252422"/><path d="M240.767 142.464c-16.893 5.04-29.759 11.303-33.74 16.422 14.705-5.348 27.025-11.032 35.836-16.525" fill="#252422"/><path d="M204.903 103.758l-1.98 1.98 39.199 39.198 1.979-1.98-39.198-39.198z" fill="#252422"/><path d="M296.417 186.942c-2.93 0-6.127-.201-9.576-.607-16.188-1.908-35.97-8.12-55.691-17.481-19.722-9.361-37.035-20.767-48.749-32.107-11.774-11.396-16.491-21.392-13.281-28.149 3.211-6.757 13.94-9.417 30.208-7.499 16.188 1.908 35.97 8.12 55.692 17.481 19.721 9.361 37.034 20.767 48.747 32.107 11.774 11.396 16.492 21.392 13.282 28.149-2.525 5.32-9.726 8.106-20.632 8.106zm-106.642-85.993c-10.397 0-17.719 2.548-20.239 7.845-3.113 6.561 1.567 16.366 13.187 27.613 11.676 11.302 28.948 22.675 48.627 32.018 19.68 9.342 39.406 15.535 55.548 17.444 16.058 1.894 26.618-.677 29.731-7.234 6.468-13.626-21.257-40.376-61.81-59.63-24.78-11.77-48.706-18.056-65.044-18.056z" fill="#252422"/><path d="M123.405 75.847c.308-2.053-.527-4.204-2.342-5.46l-17.416-12.021c-2.534-1.75-6.039-1.106-7.789 1.428l-5.567 8.064c-1.75 2.534-1.106 6.039 1.428 7.789l14.914 10.294c4.051-4.41 9.744-7.765 16.772-10.094z" fill="url(#prefix__paint4_linear_149_213)"/><path opacity=".33" d="M215.535 210.91a331.94 331.94 0 01-26.997-15.073c-52.547 3.556-90.552 13.874-90.552 26.044 0 15.116 58.609 27.37 130.905 27.37 40.152 0 76.08-3.78 100.09-9.734-29.334 2.328-70.994-7.416-113.446-28.607z" fill="url(#prefix__paint5_linear_149_213)"/><path d="M370.678 215.983a23.45 23.45 0 01-.406 1.143c1.162 1.857 1.764 3.733 1.764 5.614 0 9.669-15.727 19.236-43.143 26.255-28.019 7.172-65.278 11.12-104.912 11.12s-76.892-3.948-104.911-11.12c-27.417-7.019-43.143-16.586-43.143-26.255s15.726-19.236 43.143-26.255c15.204-3.892 33.138-6.832 52.691-8.708a13.42 13.42 0 01-1.437-1.106c-19.045 1.886-36.512 4.784-51.385 8.592-13.664 3.495-24.392 7.574-31.896 12.114-7.91 4.788-11.924 9.959-11.924 15.368 0 5.408 4.014 10.579 11.924 15.367 7.504 4.541 18.237 8.615 31.896 12.115 28.061 7.182 65.366 11.139 105.042 11.139s76.982-3.957 105.042-11.139c13.664-3.496 24.393-7.574 31.897-12.115 7.91-4.788 11.923-9.959 11.923-15.367.005-2.306-.728-4.56-2.165-6.762z" fill="url(#prefix__paint6_linear_149_213)"/><path d="M283.304 74.037c-3.799-2.007-7.056-3.286-7.28-2.861-.224.425 2.669 2.394 6.468 4.4 3.799 2.007 7.056 3.286 7.28 2.861.224-.424-2.674-2.394-6.468-4.4z" fill="url(#prefix__paint7_radial_149_213)"/><path d="M283.663 75.213c2.007-3.799 3.286-7.056 2.861-7.28-.425-.224-2.394 2.669-4.401 6.468-2.006 3.798-3.285 7.056-2.86 7.28.429.228 2.398-2.67 4.4-6.468z" fill="url(#prefix__paint8_radial_149_213)"/><path d="M344.167 122.169a7.873 7.873 0 100-15.746 7.873 7.873 0 000 15.746z" fill="url(#prefix__paint9_linear_149_213)" fill-opacity=".6"/><path d="M344.167 129.211a14.832 14.832 0 01-10.547-4.368 14.807 14.807 0 01-4.368-10.547c0-3.985 1.55-7.728 4.368-10.547a14.815 14.815 0 0110.547-4.368c3.985 0 7.728 1.554 10.547 4.368a14.816 14.816 0 014.368 10.547c0 3.985-1.554 7.728-4.368 10.547a14.816 14.816 0 01-10.547 4.368zm0-28.43a13.421 13.421 0 00-9.557 3.958 13.421 13.421 0 00-3.958 9.557c0 3.612 1.405 7.005 3.958 9.557a13.421 13.421 0 009.557 3.958c3.612 0 7.005-1.405 9.557-3.958a13.421 13.421 0 003.958-9.557c0-3.612-1.405-7.005-3.958-9.557a13.421 13.421 0 00-9.557-3.958z" fill="url(#prefix__paint10_linear_149_213)" fill-opacity=".6"/><path d="M309.13 84.947a20.413 20.413 0 001.88 3.094l-1.88-3.094z" fill="url(#prefix__paint11_linear_149_213)"/><path d="M319.783 240.329c-2.585 0-5.254-.07-7.998-.215-30.287-1.596-66.682-11.83-102.476-28.826-35.793-16.996-66.733-38.724-87.112-61.189-20.571-22.676-27.963-43.456-20.809-58.516 7.154-15.064 27.93-22.47 58.497-20.86 30.286 1.596 66.682 11.83 102.475 28.826 35.793 16.996 66.733 38.724 87.113 61.19 20.57 22.675 27.962 43.456 20.808 58.515-6.505 13.706-24.304 21.075-50.498 21.075zM102.233 91.98l.844.401c-14.186 29.876 33.829 82.46 107.035 117.218 40.222 19.096 79.814 28.9 109.671 28.9 24.486 0 42.425-6.589 48.814-20.052 14.186-29.876-33.829-82.46-107.035-117.218-73.206-34.757-144.303-38.728-158.489-8.852l-.84-.397z" fill="url(#prefix__paint12_linear_149_213)"/><path d="M111.212 133.075c-3.216-.817-5.899-1.186-5.988-.826-.093.359 2.441 1.316 5.656 2.132 3.216.817 5.899 1.186 5.988.826.093-.364-2.441-1.316-5.656-2.132z" fill="url(#prefix__paint13_radial_149_213)"/><path d="M111.697 133.891c.817-3.215 1.185-5.898.826-5.987-.359-.093-1.316 2.441-2.133 5.656-.816 3.215-1.185 5.899-.826 5.987.36.089 1.316-2.44 2.133-5.656z" fill="url(#prefix__paint14_radial_149_213)"/><path d="M318.482 239.381h-.467v3.5h.467v-3.5z" fill="url(#prefix__paint15_linear_149_213)"/><path d="M241.482 222.581h-.934v24.5h.934v-24.5z" fill="url(#prefix__paint16_linear_149_213)"/><path d="M165.882 182.915h-.934v61.366h.934v-61.366z" fill="url(#prefix__paint17_linear_149_213)"/><path d="M99.148 106.381h-.933v114.1h.933v-114.1z" fill="url(#prefix__paint18_linear_149_213)"/><path opacity=".42" d="M71.839 200.34c1.138-4.461 5.534-7.415 9.996-8.559 4.461-1.143 9.146-.9 13.73-1.348 4.582-.448 9.398-1.783 12.398-5.274 4.522-5.264 3.281-13.416.178-19.623-3.104-6.207-7.794-11.657-9.86-18.284-1.42-4.545-1.527-9.436-3.08-13.939-1.68-4.877-5.134-9.189-9.703-11.588-4.569-2.398-10.23-2.767-14.943-.667-4.638 2.072-8.092 6.389-9.618 11.233-1.526 4.844-1.232 10.154.294 14.998.831 2.642 2.03 5.32 1.624 8.055-.606 4.083-4.447 6.715-7.4 9.599-5.27 5.148-8.345 12.484-8.322 19.852.024 7.369 3.15 14.686 8.456 19.801 2.068 1.993 4.57 3.71 7.411 4.116 2.842.411 6.053-.779 7.34-3.346.724-1.437.785-3.108 1.153-4.676.37-1.568 1.228-3.215 2.768-3.687" fill="url(#prefix__paint19_linear_149_213)"/><path d="M164.514 241.453c-3.817-4.774-7.345-8.297-7.877-7.868-.532.43 2.123 4.644 5.94 9.418 3.818 4.774 7.346 8.297 7.878 7.868.536-.43-2.124-4.648-5.941-9.418z" fill="url(#prefix__paint20_radial_149_213)"/><path d="M164.318 243.194c4.774-3.817 8.298-7.345 7.868-7.877-.429-.537-4.643 2.123-9.417 5.94-4.774 3.818-8.297 7.346-7.868 7.878.429.532 4.643-2.124 9.417-5.941z" fill="url(#prefix__paint21_radial_149_213)"/><path d="M359.735 151.121c-1.662-2.077-3.197-3.612-3.43-3.426-.234.187.924 2.021 2.585 4.102 1.661 2.082 3.197 3.612 3.43 3.426.233-.187-.924-2.021-2.585-4.102z" fill="url(#prefix__paint22_radial_149_213)"/><path d="M359.651 151.881c2.076-1.661 3.612-3.196 3.425-3.43-.187-.233-2.021.924-4.102 2.586-2.077 1.661-3.612 3.196-3.425 3.43.186.233 2.02-.924 4.102-2.586z" fill="url(#prefix__paint23_radial_149_213)"/><path d="M71.279 83.65c-3.276-4.102-6.31-7.126-6.767-6.757-.457.368 1.825 3.99 5.106 8.087 3.276 4.102 6.309 7.126 6.766 6.757.458-.364-1.829-3.985-5.105-8.087z" fill="url(#prefix__paint24_radial_149_213)"/><path d="M71.11 85.148c4.103-3.276 7.127-6.31 6.758-6.767-.368-.457-3.99 1.825-8.087 5.106-4.097 3.28-7.126 6.309-6.757 6.766.364.458 3.985-1.824 8.087-5.105z" fill="url(#prefix__paint25_radial_149_213)"/><path d="M184.571 74.639a29.564 29.564 0 003.995-14.868c0-16.399-13.291-29.69-29.689-29.69-16.399 0-29.69 13.291-29.69 29.69 0 4.797 1.144 9.324 3.164 13.337 14.164-2.66 32.116-2.123 52.22 1.53z" fill="url(#prefix__paint26_linear_149_213)"/><defs><linearGradient id="prefix__paint0_linear_149_213" x1="327.566" y1="48.099" x2="326.947" y2="48.26" gradientUnits="userSpaceOnUse"><stop offset=".043" stop-color="#446CF6"/><stop offset="1" stop-color="#7D54FC" stop-opacity="0"/></linearGradient><linearGradient id="prefix__paint1_linear_149_213" x1="388.225" y1="37.554" x2="183.821" y2="90.723" gradientUnits="userSpaceOnUse"><stop offset=".043" stop-color="#446CF6"/><stop offset="1" stop-color="#7D54FC" stop-opacity="0"/></linearGradient><linearGradient id="prefix__paint2_linear_149_213" x1="128.064" y1="96.045" x2="352.484" y2="202.603" gradientUnits="userSpaceOnUse"><stop stop-color="#6AD9D3"/><stop offset="1" stop-color="#64C9FC"/></linearGradient><linearGradient id="prefix__paint3_linear_149_213" x1="235.835" y1="70.507" x2="235.835" y2="240.329" gradientUnits="userSpaceOnUse"><stop stop-color="#6AD9D3"/><stop offset="1" stop-color="#64C9FC"/></linearGradient><linearGradient id="prefix__paint4_linear_149_213" x1="106.387" y1="57.38" x2="106.387" y2="85.941" gradientUnits="userSpaceOnUse"><stop stop-color="#6AD9D3"/><stop offset="1" stop-color="#64C9FC"/></linearGradient><linearGradient id="prefix__paint5_linear_149_213" x1="213.484" y1="195.837" x2="213.484" y2="249.251" gradientUnits="userSpaceOnUse"><stop stop-color="#6AD9D3"/><stop offset="1" stop-color="#64C9FC"/></linearGradient><linearGradient id="prefix__paint6_linear_149_213" x1="223.981" y1="186.671" x2="223.981" y2="261.366" gradientUnits="userSpaceOnUse"><stop stop-color="#6AD9D3"/><stop offset="1" stop-color="#64C9FC"/></linearGradient><linearGradient id="prefix__paint9_linear_149_213" x1="344.167" y1="106.423" x2="344.167" y2="122.169" gradientUnits="userSpaceOnUse"><stop stop-color="#6AD9D3"/><stop offset="1" stop-color="#64C9FC"/></linearGradient><linearGradient id="prefix__paint10_linear_149_213" x1="344.167" y1="99.381" x2="344.167" y2="129.211" gradientUnits="userSpaceOnUse"><stop stop-color="#6AD9D3"/><stop offset="1" stop-color="#64C9FC"/></linearGradient><linearGradient id="prefix__paint11_linear_149_213" x1="312.294" y1="88.15" x2="307.803" y2="84.805" gradientUnits="userSpaceOnUse"><stop offset=".043" stop-color="#446CF6"/><stop offset="1" stop-color="#7D54FC" stop-opacity="0"/></linearGradient><linearGradient id="prefix__paint12_linear_149_213" x1="235.835" y1="70.507" x2="235.835" y2="240.329" gradientUnits="userSpaceOnUse"><stop stop-color="#6AD9D3"/><stop offset="1" stop-color="#64C9FC"/></linearGradient><linearGradient id="prefix__paint15_linear_149_213" x1="318.248" y1="239.381" x2="318.248" y2="242.881" gradientUnits="userSpaceOnUse"><stop stop-color="#6AD9D3"/><stop offset="1" stop-color="#64C9FC"/></linearGradient><linearGradient id="prefix__paint16_linear_149_213" x1="241.015" y1="222.581" x2="241.015" y2="247.081" gradientUnits="userSpaceOnUse"><stop stop-color="#6AD9D3"/><stop offset="1" stop-color="#64C9FC"/></linearGradient><linearGradient id="prefix__paint17_linear_149_213" x1="165.415" y1="182.915" x2="165.415" y2="244.281" gradientUnits="userSpaceOnUse"><stop stop-color="#6AD9D3"/><stop offset="1" stop-color="#64C9FC"/></linearGradient><linearGradient id="prefix__paint18_linear_149_213" x1="98.681" y1="106.381" x2="98.681" y2="220.481" gradientUnits="userSpaceOnUse"><stop stop-color="#6AD9D3"/><stop offset="1" stop-color="#64C9FC"/></linearGradient><linearGradient id="prefix__paint19_linear_149_213" x1="106.008" y1="154.894" x2="42.762" y2="171.343" gradientUnits="userSpaceOnUse"><stop offset=".043" stop-color="#446CF6"/><stop offset="1" stop-color="#7D54FC" stop-opacity="0"/></linearGradient><linearGradient id="prefix__paint26_linear_149_213" x1="129.185" y1="52.359" x2="188.566" y2="52.359" gradientUnits="userSpaceOnUse"><stop stop-color="#446CF6"/><stop offset="1" stop-color="#7D54FC" stop-opacity="0"/></linearGradient><radialGradient id="prefix__paint7_radial_149_213" cx="0" cy="0" r="1" gradientUnits="userSpaceOnUse" gradientTransform="rotate(117.839 118.925 122.639) scale(2.32992 9.16646)"><stop stop-color="#fff"/><stop offset="1" stop-color="#fff" stop-opacity="0"/></radialGradient><radialGradient id="prefix__paint8_radial_149_213" cx="0" cy="0" r="1" gradientUnits="userSpaceOnUse" gradientTransform="rotate(-152.161 150.73 2.385) scale(2.32991 9.16647)"><stop stop-color="#fff"/><stop offset="1" stop-color="#fff" stop-opacity="0"/></radialGradient><radialGradient id="prefix__paint13_radial_149_213" cx="0" cy="0" r="1" gradientUnits="userSpaceOnUse" gradientTransform="rotate(104.259 3.53 110.007) scale(1.80049 7.0838)"><stop stop-color="#fff"/><stop offset="1" stop-color="#fff" stop-opacity="0"/></radialGradient><radialGradient id="prefix__paint14_radial_149_213" cx="0" cy="0" r="1" gradientUnits="userSpaceOnUse" gradientTransform="rotate(-165.741 63.872 59.96) scale(1.8005 7.0838)"><stop stop-color="#fff"/><stop offset="1" stop-color="#fff" stop-opacity="0"/></radialGradient><radialGradient id="prefix__paint20_radial_149_213" cx="0" cy="0" r="1" gradientUnits="userSpaceOnUse" gradientTransform="rotate(141.354 39.258 149.79) scale(3.31621 13.0476)"><stop stop-color="#fff"/><stop offset="1" stop-color="#fff" stop-opacity="0"/></radialGradient><radialGradient id="prefix__paint21_radial_149_213" cx="0" cy="0" r="1" gradientUnits="userSpaceOnUse" gradientTransform="matrix(-2.071 -2.59002 10.19043 -8.14832 163.633 242.169)"><stop stop-color="#fff"/><stop offset="1" stop-color="#fff" stop-opacity="0"/></radialGradient><radialGradient id="prefix__paint22_radial_149_213" cx="0" cy="0" r="1" gradientUnits="userSpaceOnUse" gradientTransform="matrix(-1.12763 .90166 -3.54757 -4.43665 359.219 151.491)"><stop stop-color="#fff"/><stop offset="1" stop-color="#fff" stop-opacity="0"/></radialGradient><radialGradient id="prefix__paint23_radial_149_213" cx="0" cy="0" r="1" gradientUnits="userSpaceOnUse" gradientTransform="rotate(-128.646 216.1 -10.693) scale(1.44379 5.6806)"><stop stop-color="#fff"/><stop offset="1" stop-color="#fff" stop-opacity="0"/></radialGradient><radialGradient id="prefix__paint24_radial_149_213" cx="0" cy="0" r="1" gradientUnits="userSpaceOnUse" gradientTransform="matrix(-2.2245 1.77872 -6.99835 -8.75226 70.37 84.346)"><stop stop-color="#fff"/><stop offset="1" stop-color="#fff" stop-opacity="0"/></radialGradient><radialGradient id="prefix__paint25_radial_149_213" cx="0" cy="0" r="1" gradientUnits="userSpaceOnUse" gradientTransform="rotate(-128.646 55.522 25.18) scale(2.8482 11.2062)"><stop stop-color="#fff"/><stop offset="1" stop-color="#fff" stop-opacity="0"/></radialGradient></defs></svg>