<svg width="174" height="41" viewBox="0 0 174 41" fill="none" xmlns="http://www.w3.org/2000/svg">
<path d="M62.976 14.256L59.392 25.456H55.344L53.536 19.472L51.632 25.456H47.584L44 14.256H47.888L49.84 20.624L51.904 14.256H55.376L57.328 20.704L59.392 14.256H62.976Z" fill="white"/>
<path d="M69.5146 25.712C68.3093 25.712 67.2266 25.4613 66.2666 24.96C65.3066 24.4587 64.5546 23.7653 64.0106 22.88C63.4666 21.984 63.1946 20.976 63.1946 19.856C63.1946 18.736 63.4666 17.7333 64.0106 16.848C64.5546 15.952 65.3066 15.2533 66.2666 14.752C67.2266 14.2507 68.3093 14 69.5146 14C70.72 14 71.8026 14.2507 72.7626 14.752C73.7226 15.2533 74.4746 15.952 75.0186 16.848C75.5626 17.7333 75.8346 18.736 75.8346 19.856C75.8346 20.976 75.5626 21.984 75.0186 22.88C74.4746 23.7653 73.7226 24.4587 72.7626 24.96C71.8026 25.4613 70.72 25.712 69.5146 25.712ZM69.5146 22.656C69.984 22.656 70.4053 22.544 70.7786 22.32C71.1626 22.0853 71.4666 21.76 71.6906 21.344C71.9146 20.9173 72.0266 20.4213 72.0266 19.856C72.0266 19.2907 71.9146 18.8 71.6906 18.384C71.4666 17.9573 71.1626 17.632 70.7786 17.408C70.4053 17.1733 69.984 17.056 69.5146 17.056C69.0453 17.056 68.6186 17.1733 68.2346 17.408C67.8613 17.632 67.5626 17.9573 67.3386 18.384C67.1146 18.8 67.0026 19.2907 67.0026 19.856C67.0026 20.4213 67.1146 20.9173 67.3386 21.344C67.5626 21.76 67.8613 22.0853 68.2346 22.32C68.6186 22.544 69.0453 22.656 69.5146 22.656Z" fill="white"/>
<path d="M88.2451 14.256V25.456H85.1411L80.8851 20.368V25.456H77.2051V14.256H80.3091L84.5651 19.344V14.256H88.2451Z" fill="white"/>
<path d="M90.0645 14.256H95.5845C96.8325 14.256 97.9312 14.4853 98.8805 14.944C99.8405 15.392 100.582 16.0373 101.104 16.88C101.638 17.7227 101.904 18.7147 101.904 19.856C101.904 20.9973 101.638 21.9893 101.104 22.832C100.582 23.6747 99.8405 24.3253 98.8805 24.784C97.9312 25.232 96.8325 25.456 95.5845 25.456H90.0645V14.256ZM95.4245 22.512C96.2352 22.512 96.8805 22.2827 97.3605 21.824C97.8512 21.3547 98.0965 20.6987 98.0965 19.856C98.0965 19.0133 97.8512 18.3627 97.3605 17.904C96.8805 17.4347 96.2352 17.2 95.4245 17.2H93.8405V22.512H95.4245Z" fill="white"/>
<path d="M112.595 22.608V25.456H103.283V14.256H112.387V17.104H106.995V18.416H111.731V21.136H106.995V22.608H112.595Z" fill="white"/>
<path d="M118.849 22.64H117.825V25.456H114.049V14.256H119.441C120.476 14.256 121.377 14.4267 122.145 14.768C122.913 15.1093 123.505 15.6 123.921 16.24C124.337 16.88 124.545 17.6267 124.545 18.48C124.545 19.28 124.364 19.9787 124.001 20.576C123.638 21.1733 123.116 21.648 122.433 22L124.785 25.456H120.753L118.849 22.64ZM120.737 18.48C120.737 18.064 120.609 17.744 120.353 17.52C120.097 17.2853 119.713 17.168 119.201 17.168H117.825V19.792H119.201C119.713 19.792 120.097 19.68 120.353 19.456C120.609 19.2213 120.737 18.896 120.737 18.48Z" fill="white"/>
<path d="M125.971 14.256H129.747V22.528H134.803V25.456H125.971V14.256Z" fill="white"/>
<path d="M143.634 23.504H139.378L138.626 25.456H134.786L139.682 14.256H143.394L148.29 25.456H144.386L143.634 23.504ZM142.594 20.784L141.506 17.968L140.418 20.784H142.594Z" fill="white"/>
<path d="M159.933 14.256V25.456H156.829L152.573 20.368V25.456H148.893V14.256H151.997L156.253 19.344V14.256H159.933Z" fill="white"/>
<path d="M161.752 14.256H167.272C168.52 14.256 169.619 14.4853 170.568 14.944C171.528 15.392 172.269 16.0373 172.792 16.88C173.325 17.7227 173.592 18.7147 173.592 19.856C173.592 20.9973 173.325 21.9893 172.792 22.832C172.269 23.6747 171.528 24.3253 170.568 24.784C169.619 25.232 168.52 25.456 167.272 25.456H161.752V14.256ZM167.112 22.512C167.923 22.512 168.568 22.2827 169.048 21.824C169.539 21.3547 169.784 20.6987 169.784 19.856C169.784 19.0133 169.539 18.3627 169.048 17.904C168.568 17.4347 167.923 17.2 167.112 17.2H165.528V22.512H167.112Z" fill="white"/>
<path fill-rule="evenodd" clip-rule="evenodd" d="M3 3.96001H26.28V5.16001H4.2V19.36H3V3.96001ZM34.2 35.16V24.96H35.4V36.36H10.88V35.16H34.2ZM4.2 35.16V25.76H3V36.36H6.24V35.16H4.2Z" fill="white"/>
<path fill-rule="evenodd" clip-rule="evenodd" d="M32.0111 9.96359C32.0667 10.175 31.6588 10.5296 31.1321 10.9875C30.1377 11.852 28.7201 13.0843 29.2008 14.4149C28.0914 15.0437 26.5817 17.6413 27.2727 19.0299L26.3406 19.5233L26.3406 19.5233C26.3406 19.5233 24.9006 19.0999 24.3406 18.8033C24.2069 18.7325 23.9739 18.6406 23.6956 18.5308C22.8085 18.1807 21.4609 17.649 21.4 17.04C21.3271 16.3112 22.8142 12.031 23.0797 11.2743C23.1519 11.1192 23.2361 10.9645 23.3203 10.81C23.5153 10.4519 23.7102 10.0941 23.7546 9.73109C23.7783 9.53686 23.7285 9.384 23.5155 9.52729C23.4402 9.58502 23.395 9.73942 23.3541 9.8793C23.3083 10.0357 23.2679 10.1739 23.1966 10.1387C23.1475 10.1144 23.1966 9.93182 23.2606 9.69347C23.3845 9.23185 23.5646 8.56115 23.1966 8.42674C22.9312 8.3298 22.5191 8.4675 22.3597 9.32348C22.2394 9.96923 22.2396 10.2308 22.24 10.7028V10.7028L22.2401 10.7529C21.9185 11.3441 19.76 15.3741 19.76 17.04C19.76 18.2417 20.0749 18.5241 21.1478 19.4859C21.3962 19.7087 21.6853 19.9679 22.0206 20.2833L19.1458 24.2444C18.3748 24.474 16.5478 23.8382 14.7054 23.197C12.5728 22.4549 10.4198 21.7056 9.8606 22.2833C9.57496 22.5785 9.76369 23.0925 9.9545 23.6121L9.95451 23.6121C10.0394 23.8434 10.1248 24.0759 10.1689 24.2906L5.50066 23.4468C5.18734 23.3778 5.05003 22.9063 5.02281 22.5944C5.10528 22.1183 5.3061 20.7659 5.26065 20.5268C5.22823 20.3563 5.15203 20.2901 4.9064 20.16L3.04001 23.9389C3.47625 24.2921 4.06008 24.436 4.62065 24.4868L4.62076 24.4866C5.14639 24.6336 7.41735 25.2728 9.59726 25.9533C9.12508 27.4011 9.47207 28.9744 9.797 30.2455L6.93254 37.5516C6.80414 37.8456 6.31495 37.8891 6.00374 37.8554C5.55255 37.6823 4.2647 37.2235 4.02132 37.2218C3.84771 37.2206 3.768 37.2825 3.59287 37.4983L6.93892 40.061C7.36996 39.7014 7.6241 39.1564 7.78251 38.6163L7.78232 38.6162C8.08363 38.0192 9.61723 34.9948 10.9153 32.6961C11.6002 33.1151 12.5443 33.0688 13.1806 32.7634C13.6732 32.5269 14.3959 32.517 15.2396 32.5055C16.4569 32.4888 17.9261 32.4688 19.3199 31.76C20.242 31.2912 22.0997 29.46 22.4739 28.535C24.3585 27.1519 25.5571 26.3947 27.342 25.4711C27.6904 25.8331 28.0321 26.2072 28.3563 26.5621L28.3563 26.5622C29.0089 27.2766 29.5904 27.9133 30.0132 28.2169C31.1181 29.0108 32.0554 28.5729 32.7961 27.7757C33.1974 27.3439 33.4948 26.2392 33.8081 25.0752C33.9507 24.5456 34.0965 24.0037 34.257 23.5073H34.2586C34.4606 23.0281 34.5778 22.6867 34.7209 22.0177C34.8997 21.1815 34.571 20.8963 34.2886 20.8805C33.8971 20.8586 33.808 21.5353 33.7467 22.0011C33.715 22.2416 33.6908 22.4258 33.6361 22.4286C33.5568 22.4327 33.5721 22.2919 33.5893 22.1327C33.6048 21.9902 33.6219 21.833 33.5743 21.7515C33.4318 21.5388 33.3275 21.6576 33.2754 21.8425C33.1781 22.1881 33.222 22.5877 33.2659 22.9874V22.9874L33.2659 22.9875C33.281 23.1248 33.296 23.2621 33.3054 23.3973C33.1644 23.7847 32.0318 26.817 31.1332 26.817C30.1732 26.817 28.92 23.5967 28.92 23.5967L28.9186 23.5971L27.7641 21.1142L27.7692 21.1078C27.8397 21.015 27.9277 20.875 28.033 20.7074C28.1322 20.5495 28.2468 20.367 28.3769 20.1762C29.2197 20.5769 30.2551 20.2844 31.233 19.2537C34.8036 21.3105 35.8569 18.5544 36.52 16.56C37.2002 15.8883 36.8202 14.4644 36.4996 13.2632C36.2481 12.3207 36.0332 11.5153 36.3958 11.3182C37.2418 10.8581 37.0734 10.5016 36.8301 9.98661C36.6861 9.68172 36.5158 9.32128 36.5142 8.8509C36.5123 8.28215 36.6137 7.95578 36.7051 7.66144C36.8169 7.30119 36.9139 6.98893 36.7884 6.339C36.6761 5.75745 36.2204 5.51987 35.7162 5.25697C35.1965 4.98601 34.6253 4.68817 34.3253 3.95912C31.6227 -2.60832 26.7577 2.05103 27.2076 3.81392C27.4309 4.68904 27.9925 5.30208 28.8518 6.24014C28.9171 6.31145 28.9842 6.38464 29.0529 6.45996C29.3408 6.77535 29.4014 7.22604 29.4559 7.63035C29.4984 7.94681 29.5372 8.23485 29.6781 8.40737C30.1836 9.02646 30.7815 9.25019 31.2478 9.42467C31.6387 9.57095 31.9371 9.68261 32.0111 9.96359Z" fill="white"/>
</svg>
