<svg width="150" height="150" viewBox="0 0 150 150" fill="none" xmlns="http://www.w3.org/2000/svg">
<path d="M75.0001 36.85C34.3501 36.85 1.3501 49.1 1.3501 64.25C1.3501 79.4 34.3501 91.7 75.0001 91.7C115.65 91.7 148.65 79.4 148.65 64.25C148.65 49.1 115.7 36.85 75.0001 36.85ZM75.0001 79.85C48.3001 79.85 26.6501 72.3 26.6501 63.05C26.6501 53.8 48.3001 46.25 75.0001 46.25C101.7 46.25 123.4 53.75 123.4 63.05C123.4 72.35 101.75 79.85 75.0001 79.85Z" fill="url(#paint0_linear_301_1103)"/>
<path d="M76.0501 91.7C56.8001 91.7 39.3501 88.6 26.8001 83.6V125.3C26.79 128.947 27.8699 132.514 29.9011 135.543C31.9323 138.572 34.8223 140.925 38.2001 142.3C50.1966 147.284 63.0594 149.85 76.0501 149.85C89.0408 149.85 101.904 147.284 113.9 142.3C117.283 140.927 120.18 138.576 122.22 135.548C124.26 132.519 125.349 128.951 125.35 125.3V83.6C112.75 88.6 95.3001 91.7 76.0501 91.7Z" fill="url(#paint1_linear_301_1103)"/>
<path d="M75 92.05C55.3 92.05 36.75 89.2 22.8 84C8.85 78.8 1 71.75 1 64.25C1 56.75 8.75 49.8 22.8 44.55C36.85 39.3 55.3 36.5 75 36.5C94.7 36.5 113.3 39.35 127.25 44.55C141.2 49.75 149.05 56.8 149.05 64.25C149.05 71.7 141.3 78.75 127.25 84C113.2 89.25 94.75 92.05 75 92.05ZM75 37.2C34.6 37.2 1.75 49.35 1.75 64.25C1.75 79.15 34.6 91.35 75 91.35C115.4 91.35 148.3 79.2 148.3 64.25C148.3 49.3 115.45 37.2 75 37.2V37.2Z" fill="#7D54FC"/>
<path d="M76.05 150H75.85C62.8947 149.969 50.0707 147.404 38.0999 142.45C34.6915 141.064 31.7753 138.69 29.7261 135.634C27.6768 132.578 26.5882 128.979 26.5999 125.3V83.35L26.8499 83.45C39.9499 88.65 57.45 91.55 76.05 91.55C94.65 91.55 112.15 88.65 125.25 83.45L125.5 83.35V125.3C125.512 128.979 124.423 132.578 122.374 135.634C120.325 138.69 117.408 141.064 114 142.45C101.968 147.433 89.0729 149.999 76.05 150V150ZM26.9499 83.85V125.3C26.9482 128.913 28.0219 132.445 30.0343 135.446C32.0467 138.446 34.9066 140.78 38.2499 142.15C50.1714 147.087 62.9465 149.636 75.85 149.65H76.05C89.0211 149.666 101.867 147.117 113.85 142.15C117.193 140.78 120.053 138.446 122.066 135.446C124.078 132.445 125.152 128.913 125.15 125.3V83.85C112 89.05 94.6 91.85 76.05 91.85C57.5 91.85 40.0999 89.05 26.9499 83.85Z" fill="#7D54FC"/>
<path d="M76.0501 106.35C56.8001 106.35 39.35 103.25 26.8 98.25V109.45C39.35 114.45 56.8001 117.55 76.0501 117.55C95.3001 117.55 112.75 114.45 125.35 109.45V98.25C112.75 103.25 95.3001 106.35 76.0501 106.35Z" fill="url(#paint2_linear_301_1103)"/>
<path d="M76.05 150H75.85C62.8947 149.969 50.0707 147.404 38.0999 142.45C34.6915 141.064 31.7753 138.69 29.7261 135.634C27.6768 132.578 26.5882 128.979 26.5999 125.3V83.35L26.8499 83.45C39.9499 88.65 57.45 91.55 76.05 91.55C94.65 91.55 112.15 88.65 125.25 83.45L125.5 83.35V125.3C125.512 128.979 124.423 132.578 122.374 135.634C120.325 138.69 117.408 141.064 114 142.45C101.968 147.433 89.0729 149.999 76.05 150V150ZM26.9499 83.85V125.3C26.9482 128.913 28.0219 132.445 30.0343 135.446C32.0467 138.446 34.9066 140.78 38.2499 142.15C50.1714 147.087 62.9465 149.636 75.85 149.65H76.05C89.0211 149.666 101.867 147.117 113.85 142.15C117.193 140.78 120.053 138.446 122.066 135.446C124.078 132.445 125.152 128.913 125.15 125.3V83.85C112 89.05 94.6 91.85 76.05 91.85C57.5 91.85 40.0999 89.05 26.9499 83.85Z" fill="#7D54FC"/>
<path d="M104.8 24.95C104.8 23.8 105.05 23.4 106.3 23.45C107.748 23.5158 109.217 23.495 110.765 23.4731C111.376 23.4644 111.998 23.4556 112.636 23.4519M104.8 24.95L112.636 23.4519M104.8 24.95C104.825 28.55 104.825 32.15 104.825 35.75C104.825 39.35 104.825 42.95 104.85 46.55L104.8 24.95ZM112.636 23.4519C112.839 23.4507 113.044 23.45 113.25 23.45L112.892 22.9506C112.686 22.9514 112.482 22.9527 112.28 22.9544L112.636 23.4519ZM88.5999 70V69.6174C88.537 69.7062 88.4741 69.7949 88.4112 69.8837M88.5999 70L88.4464 69.8464C88.4341 69.8587 88.4224 69.8711 88.4112 69.8837M88.5999 70V70.0583M88.5999 70L88.7999 70.2L88.5999 70.0583M88.4112 69.8837C88.4048 69.8928 88.3983 69.9019 88.3919 69.911L88.5999 70.0583M88.4112 69.8837C88.268 70.0448 88.209 70.2295 88.1789 70.3259C88.1702 70.3537 88.164 70.3743 88.1589 70.3913C88.1583 70.3932 88.1578 70.395 88.1573 70.3968L88.5999 70.2058V70.0583M96.4508 0.859737C96.553 0.716393 96.6553 0.573003 96.7576 0.429563L96.4499 0C96.3476 0.143442 96.2453 0.286833 96.143 0.430177L96.4508 0.859737ZM80.6238 22.9544C80.4216 22.9527 80.2171 22.9514 80.0101 22.9507C79.8901 23.117 79.7701 23.2835 79.6499 23.45C79.857 23.45 80.062 23.4507 80.2651 23.4519C80.3847 23.286 80.5043 23.1202 80.6238 22.9544ZM86.4767 22.9505C86.4742 22.9507 86.4718 22.9508 86.4693 22.9509C86.4667 22.9511 86.4641 22.9513 86.4616 22.9515L86.4999 23.45L86.4767 22.9505ZM103.845 48.3564C103.843 48.3596 103.841 48.3627 103.838 48.3659C103.836 48.369 103.834 48.372 103.832 48.3751L104.25 48.65L103.845 48.3564Z" fill="#121415" stroke="url(#paint3_linear_301_1103)"/>
<path d="M50.3581 24.8887L65.5357 3.71875C65.5438 3.90331 65.5499 4.08036 65.5499 4.25C65.5499 18.9001 65.5499 33.4993 65.4999 48.1483V48.15C65.4999 48.8032 65.5772 49.4306 65.9859 49.8493C66.4073 50.281 67.0354 50.3498 67.7299 50.2991C69.1228 50.2346 70.504 50.2547 71.9988 50.2764C72.4951 50.2836 73.0039 50.291 73.5298 50.2956L57.6999 72.3915L41.8702 50.2959C42.4296 50.2914 42.9712 50.2838 43.4998 50.2765C45.0644 50.2547 46.5153 50.2345 47.9777 50.2995C48.5585 50.3258 49.0978 50.2483 49.4564 49.8561C49.7974 49.4832 49.8499 48.9521 49.8499 48.45L49.8499 48.4466C49.8166 43.6154 49.8277 38.7862 49.8388 33.9543C49.8443 31.5371 49.8499 29.1192 49.8499 26.7V26.6853L49.849 26.6705C49.8116 26.0366 49.9908 25.4087 50.3572 24.89C50.3575 24.8896 50.3578 24.8891 50.3581 24.8887Z" fill="#121415" stroke="url(#paint4_linear_301_1103)"/>
<defs>
<linearGradient id="paint0_linear_301_1103" x1="75.3867" y1="18.961" x2="74.351" y2="156.908" gradientUnits="userSpaceOnUse">
<stop offset="0.0435" stop-color="#6AD9D3"/>
<stop offset="1" stop-color="#7D54FC" stop-opacity="0"/>
</linearGradient>
<linearGradient id="paint1_linear_301_1103" x1="76.3338" y1="61.9929" x2="74.0756" y2="228.59" gradientUnits="userSpaceOnUse">
<stop offset="0.0435" stop-color="#6AD9D3"/>
<stop offset="1" stop-color="#7D54FC" stop-opacity="0"/>
</linearGradient>
<linearGradient id="paint2_linear_301_1103" x1="14677.2" y1="5185.15" x2="14687.4" y2="3205.02" gradientUnits="userSpaceOnUse">
<stop stop-color="#7D54FC"/>
<stop offset="0.29" stop-color="#7D54FC" stop-opacity="0.7"/>
<stop offset="0.78" stop-color="#7D54FC" stop-opacity="0.2"/>
<stop offset="1" stop-color="#7D54FC" stop-opacity="0"/>
</linearGradient>
<linearGradient id="paint3_linear_301_1103" x1="96.4499" y1="0" x2="96.4499" y2="70.75" gradientUnits="userSpaceOnUse">
<stop stop-color="#446CF6"/>
<stop offset="1" stop-color="#64C9FC"/>
</linearGradient>
<linearGradient id="paint4_linear_301_1103" x1="57.6999" y1="2.5" x2="57.6999" y2="73.25" gradientUnits="userSpaceOnUse">
<stop stop-color="#446CF6"/>
<stop offset="1" stop-color="#64C9FC"/>
</linearGradient>
</defs>
</svg>
