<svg width="150" height="150" viewBox="0 0 150 150" fill="none" xmlns="http://www.w3.org/2000/svg">
<g clip-path="url(#clip0_301_234)">
<path d="M75.2 142.45C110.519 142.45 139.15 113.819 139.15 78.5C139.15 43.1814 110.519 14.55 75.2 14.55C39.8814 14.55 11.25 43.1814 11.25 78.5C11.25 113.819 39.8814 142.45 75.2 142.45Z" stroke="url(#paint0_linear_301_234)" stroke-opacity="0.5" stroke-width="2" stroke-miterlimit="10"/>
<path d="M75.2 135.95C106.929 135.95 132.65 110.229 132.65 78.5C132.65 46.7712 106.929 21.05 75.2 21.05C43.4712 21.05 17.75 46.7712 17.75 78.5C17.75 110.229 43.4712 135.95 75.2 135.95Z" fill="url(#paint1_linear_301_234)"/>
<path d="M132.15 78.5C132.15 109.953 106.653 135.45 75.2 135.45C43.7474 135.45 18.25 109.953 18.25 78.5C18.25 47.0474 43.7474 21.55 75.2 21.55C106.653 21.55 132.15 47.0474 132.15 78.5Z" stroke="url(#paint2_linear_301_234)" stroke-opacity="0.5"/>
<path d="M75.2 135.95C106.929 135.95 132.65 110.229 132.65 78.5C132.65 46.7712 106.929 21.05 75.2 21.05C43.4712 21.05 17.75 46.7712 17.75 78.5C17.75 110.229 43.4712 135.95 75.2 135.95Z" stroke="url(#paint3_linear_301_234)" stroke-opacity="0.5" stroke-width="2" stroke-miterlimit="10"/>
<path d="M77.35 42.91V31.575C77.35 30.2357 76.2643 29.15 74.925 29.15C73.5857 29.15 72.5 30.2357 72.5 31.575V42.91C72.5 44.2493 73.5857 45.335 74.925 45.335C76.2643 45.335 77.35 44.2493 77.35 42.91Z" fill="#121415"/>
<path d="M76.85 31.575V42.91C76.85 43.9731 75.9881 44.835 74.925 44.835C73.8619 44.835 73 43.9731 73 42.91V31.575C73 30.5118 73.8619 29.65 74.925 29.65C75.9881 29.65 76.85 30.5118 76.85 31.575Z" stroke="url(#paint4_linear_301_234)" stroke-opacity="0.5"/>
<path d="M77.35 128.71V117.375C77.35 116.036 76.2643 114.95 74.925 114.95C73.5857 114.95 72.5 116.036 72.5 117.375V128.71C72.5 130.049 73.5857 131.135 74.925 131.135C76.2643 131.135 77.35 130.049 77.35 128.71Z" fill="#121415"/>
<path d="M76.85 117.375V128.71C76.85 129.773 75.9881 130.635 74.925 130.635C73.8619 130.635 73 129.773 73 128.71V117.375C73 116.312 73.8619 115.45 74.925 115.45C75.9881 115.45 76.85 116.312 76.85 117.375Z" stroke="url(#paint5_linear_301_234)" stroke-opacity="0.5"/>
<path d="M111.94 80.95H123.275C124.614 80.95 125.7 79.8643 125.7 78.525C125.7 77.1857 124.614 76.1 123.275 76.1H111.94C110.601 76.1 109.515 77.1857 109.515 78.525C109.515 79.8643 110.601 80.95 111.94 80.95Z" fill="#121415"/>
<path d="M123.275 80.45H111.94C110.877 80.45 110.015 79.5882 110.015 78.525C110.015 77.4619 110.877 76.6 111.94 76.6H123.275C124.338 76.6 125.2 77.4619 125.2 78.525C125.2 79.5882 124.338 80.45 123.275 80.45Z" stroke="url(#paint6_linear_301_234)" stroke-opacity="0.5"/>
<path d="M26.1399 80.95H37.4749C38.8142 80.95 39.8999 79.8643 39.8999 78.525C39.8999 77.1857 38.8142 76.1 37.4749 76.1H26.1399C24.8006 76.1 23.7149 77.1857 23.7149 78.525C23.7149 79.8643 24.8006 80.95 26.1399 80.95Z" fill="#121415"/>
<path d="M37.4749 80.45H26.1399C25.0768 80.45 24.2149 79.5882 24.2149 78.525C24.2149 77.4619 25.0768 76.6 26.1399 76.6H37.4749C38.5381 76.6 39.3999 77.4619 39.3999 78.525C39.3999 79.5882 38.5381 80.45 37.4749 80.45Z" stroke="url(#paint7_linear_301_234)" stroke-opacity="0.5"/>
<path d="M74.85 83.65C77.5286 83.65 79.7 81.4786 79.7 78.8C79.7 76.1214 77.5286 73.95 74.85 73.95C72.1714 73.95 70 76.1214 70 78.8C70 81.4786 72.1714 83.65 74.85 83.65Z" fill="#121415"/>
<path d="M79.2 78.8C79.2 81.2025 77.2524 83.15 74.85 83.15C72.4476 83.15 70.5 81.2025 70.5 78.8C70.5 76.3976 72.4476 74.45 74.85 74.45C77.2524 74.45 79.2 76.3976 79.2 78.8Z" stroke="url(#paint8_linear_301_234)" stroke-opacity="0.5"/>
<path d="M74.75 14C80.4109 14 85 10.9779 85 7.25C85 3.52208 80.4109 0.5 74.75 0.5C69.0891 0.5 64.5 3.52208 64.5 7.25C64.5 10.9779 69.0891 14 74.75 14Z" fill="url(#paint9_linear_301_234)"/>
<path d="M75.2 150C112.59 150 142.9 119.69 142.9 82.3C142.9 44.9103 112.59 14.6 75.2 14.6C37.8103 14.6 7.5 44.9103 7.5 82.3C7.5 119.69 37.8103 150 75.2 150Z" stroke="url(#paint10_linear_301_234)" stroke-opacity="0.5" stroke-width="2" stroke-miterlimit="10"/>
</g>
<defs>
<linearGradient id="paint0_linear_301_234" x1="75.2" y1="14.55" x2="75.2" y2="142.45" gradientUnits="userSpaceOnUse">
<stop stop-color="#1673FF"/>
<stop offset="1" stop-color="#1673FF" stop-opacity="0.2"/>
</linearGradient>
<linearGradient id="paint1_linear_301_234" x1="75.5016" y1="-16.424" x2="69.677" y2="272.448" gradientUnits="userSpaceOnUse">
<stop offset="0.0435" stop-color="#6AD9D3"/>
<stop offset="1" stop-color="#7D54FC" stop-opacity="0"/>
</linearGradient>
<linearGradient id="paint2_linear_301_234" x1="75.2" y1="21.05" x2="75.2" y2="135.95" gradientUnits="userSpaceOnUse">
<stop stop-color="#1673FF"/>
<stop offset="1" stop-color="#1673FF" stop-opacity="0.2"/>
</linearGradient>
<linearGradient id="paint3_linear_301_234" x1="75.2" y1="21.05" x2="75.2" y2="135.95" gradientUnits="userSpaceOnUse">
<stop stop-color="#1673FF"/>
<stop offset="1" stop-color="#1673FF" stop-opacity="0.2"/>
</linearGradient>
<linearGradient id="paint4_linear_301_234" x1="74.925" y1="29.15" x2="74.925" y2="45.335" gradientUnits="userSpaceOnUse">
<stop stop-color="#1673FF"/>
<stop offset="1" stop-color="#1673FF" stop-opacity="0.2"/>
</linearGradient>
<linearGradient id="paint5_linear_301_234" x1="74.925" y1="114.95" x2="74.925" y2="131.135" gradientUnits="userSpaceOnUse">
<stop stop-color="#1673FF"/>
<stop offset="1" stop-color="#1673FF" stop-opacity="0.2"/>
</linearGradient>
<linearGradient id="paint6_linear_301_234" x1="125.7" y1="78.525" x2="109.515" y2="78.525" gradientUnits="userSpaceOnUse">
<stop stop-color="#1673FF"/>
<stop offset="1" stop-color="#1673FF" stop-opacity="0.2"/>
</linearGradient>
<linearGradient id="paint7_linear_301_234" x1="39.8999" y1="78.525" x2="23.7149" y2="78.525" gradientUnits="userSpaceOnUse">
<stop stop-color="#1673FF"/>
<stop offset="1" stop-color="#1673FF" stop-opacity="0.2"/>
</linearGradient>
<linearGradient id="paint8_linear_301_234" x1="74.85" y1="73.95" x2="74.85" y2="83.65" gradientUnits="userSpaceOnUse">
<stop stop-color="#1673FF"/>
<stop offset="1" stop-color="#1673FF" stop-opacity="0.2"/>
</linearGradient>
<linearGradient id="paint9_linear_301_234" x1="74.75" y1="0.5" x2="74.75" y2="14" gradientUnits="userSpaceOnUse">
<stop stop-color="#6AD9D3"/>
<stop offset="1" stop-color="#64C9FC"/>
</linearGradient>
<linearGradient id="paint10_linear_301_234" x1="75.2" y1="14.6" x2="75.2" y2="150" gradientUnits="userSpaceOnUse">
<stop stop-color="#1673FF"/>
<stop offset="1" stop-color="#1673FF" stop-opacity="0.2"/>
</linearGradient>
<clipPath id="clip0_301_234">
<rect width="150" height="150" fill="white"/>
</clipPath>
</defs>
</svg>
